<svg width="32" height="32" viewBox="0 0 32 32" fill="none" xmlns="http://www.w3.org/2000/svg">
  <defs>
    <linearGradient id="bg" x1="0" y1="0" x2="32" y2="32" gradientUnits="userSpaceOnUse">
      <stop stop-color="#0050b3"/>
      <stop offset="1" stop-color="#003875"/>
    </linearGradient>
  </defs>
  <rect width="32" height="32" rx="7" fill="url(#bg)"/>
  <!-- Sprechblase (Dialog / Prompt) -->
  <path d="M8 8 H24 A3 3 0 0 1 27 11 V17 A3 3 0 0 1 24 20 H12.5 L9 23.5 V20 H8 A3 3 0 0 1 5 17 V11 A3 3 0 0 1 8 8 Z" fill="#ffffff"/>
  <!-- Funke (KI / Idee) -->
  <path d="M16 10.4 C16.42 12.7 17.3 13.58 19.6 14 C17.3 14.42 16.42 15.3 16 17.6 C15.58 15.3 14.7 14.42 12.4 14 C14.7 13.58 15.58 12.7 16 10.4 Z" fill="#0050b3"/>
</svg>
